<svg width="252" height="208" viewBox="0 0 252 208" fill="none" xmlns="http://www.w3.org/2000/svg">
<rect width="252" height="208" fill="#F5F5F5"/>
<g class="Leias">
<rect width="514" height="350" transform="translate(-97 -65)" fill="white"/>
<g class="Leia hang">
<g class="1">
<path class="Vector 24" d="M2.36857 204.052C28.0657 204.052 53.7209 203.04 79.4356 203.325C98.5677 203.538 117.579 204.778 136.732 204.778C155.445 204.778 174.155 204.285 192.817 204.052C202.451 203.931 211.951 202.899 221.546 202.599C224.761 202.499 227.877 201.873 231.108 201.873C234.227 201.873 228.923 199.949 228.244 199.694" stroke="black" stroke-width="3" stroke-linecap="round"/>
<path class="Vector 25" d="M42.3143 206.231C42.3143 202.091 44.3994 198.267 44.4932 194.045C44.5664 190.752 45.0576 187.026 46.1072 183.877C47.8963 178.51 51.4081 173.896 55.3875 169.916C61.901 163.403 67.3557 155.104 75.7235 151.033C86.3107 145.882 98.1359 140.865 110.02 140.865C115.599 140.865 121.608 140.225 127.128 141.026C132.486 141.804 136.261 145.28 140.928 147.401C148.735 150.95 158.221 159.368 162.152 167.011C164.405 171.392 165.311 176.778 167.236 181.375C168.531 184.471 169.705 187.565 170.706 190.817C171.546 193.549 172.883 196.838 173.046 199.694C173.239 203.066 175.225 205.875 175.225 200.42" stroke="black" stroke-width="3" stroke-linecap="round"/>
</g>
<path class="2" d="M114.217 138.686C112.66 138.491 112.764 106.717 112.764 103.986C112.764 95.9069 111.459 88.4375 109.496 80.583C107.465 72.4604 107.751 64.0635 106.389 55.8892C104.513 44.6333 102.596 32.2572 102.596 20.8661C102.596 18.0914 102.194 15.2151 103.322 12.6752C103.92 11.3303 106.644 8.78722 107.68 10.8595" stroke="black" stroke-width="3" stroke-linecap="round"/>
<path class="3" d="M104.049 10.8595C104.202 12.0889 125.815 10.0939 127.693 9.77004C135.584 8.40964 144.005 7.67457 151.984 6.66315C156.196 6.12918 160.338 6.12106 164.492 5.04918C168.961 3.89592 173.447 4.73566 177.969 4.1615C194.353 2.08089 243.713 1.08376 227.517 4.32289" stroke="black" stroke-width="3" stroke-linecap="round"/>
<path class="4" d="M123.658 10.1332C123.658 12.2129 121.058 13.716 119.664 15.2172C116.572 18.5464 112.471 20.3204 109.173 23.2063C107.969 24.2596 97.7698 33.8898 96.7858 31.9218" stroke="black" stroke-width="3" stroke-linecap="round"/>
<g class="5">
<path class="part2" d="M228.97 4.32291V50.079" stroke="black" stroke-width="3" stroke-linecap="round"/>
<path class="Vector 47" d="M228.961 50.5793C228.961 52.103 229.445 53.3289 229.445 54.8158C229.445 56.2823 228.961 57.5617 228.961 58.9312C228.961 61.4731 228.961 69.0988 228.961 66.5569" stroke="black" stroke-width="3" stroke-linecap="round"/>
<path class="Vector 48" d="M228.961 65.8307C228.961 66.7137 228.514 70.8123 229.203 71.1565" stroke="black" stroke-width="3" stroke-linecap="round"/>
<path class="Vector 51" d="M228.749 70.8225C228.749 73.7877 228.552 76.8221 228.756 79.7808C228.773 80.0271 229.253 82.0064 229.413 81.847" stroke="black" stroke-width="3" stroke-linecap="round"/>
</g>
<path class="6" d="M240.703 75.737C238.994 75.737 237.43 75.7936 235.759 76.165C233.584 76.6482 232.899 78.8324 232.335 80.7254C231.469 83.633 231.325 87.0444 233.929 89.0786C236.256 90.8967 239.411 91.2776 242.267 91.2776C243.179 91.2776 244.141 91.343 245.005 90.9972C245.835 90.6653 246.652 90.0349 247.344 89.4771C248.438 88.5962 249.467 87.4225 249.971 86.0974C250.403 84.9624 250.332 83.6337 250.2 82.4447C250.034 80.9525 250.037 79.5451 249.337 78.1943C248.387 76.3633 247.469 74.9401 245.219 74.9401C244.498 74.9401 243.7 74.8434 242.991 74.9696C242.334 75.0863 241.632 75.3385 240.969 75.3385" stroke="black" stroke-width="3" stroke-linecap="round"/>
<path class="7" d="M231.405 81.3157C229.737 81.3157 227.952 82.9925 227.952 84.7249C227.952 88.3553 227.992 91.8067 228.69 95.3952C229.261 98.3345 229.941 101.312 230.239 104.295C230.488 106.779 230.475 109.337 230.475 111.836C230.475 113.863 230.568 115.935 230.313 117.946C230.134 119.358 230.11 120.81 230.07 122.233C230.042 123.197 229.944 124.153 229.944 125.119C229.944 125.552 230.003 125.96 229.811 126.344" stroke="black" stroke-width="3" stroke-linecap="round"/>
<path class="8" d="M226.889 95.9265C226.008 95.9265 225.391 96.5328 224.742 97.0777C222.875 98.6443 221.365 100.506 219.65 102.221C218.905 102.966 218.095 103.653 217.621 104.619C217.167 105.546 218.424 105.413 219.052 105.623" stroke="black" stroke-width="3" stroke-linecap="round"/>
<g class="9">
<path class="Vector 53" d="M228.749 95.7937C228.776 96.0146 229.582 96.3803 229.76 96.5464C230.776 97.4976 231.793 98.3329 232.97 99.0848C233.637 99.5117 234.319 100.177 235.124 100.177" stroke="black" stroke-width="3" stroke-linecap="round"/>
<path class="Vector 54" d="M232.202 98.583C232.716 99.3961 233.873 99.8412 234.637 100.384C235.39 100.918 236.155 101.441 236.954 101.904C237.782 102.382 238.665 102.811 239.508 103.232" stroke="black" stroke-width="3" stroke-linecap="round"/>
</g>
<path class="10" d="M227.288 127.539C227.226 127.783 225.213 127.785 224.889 127.878C223.253 128.352 221.799 129.266 220.314 130.063C219.036 130.749 217.973 131.763 216.898 132.719C216.021 133.499 215.269 135.118 214.005 134.977" stroke="black" stroke-width="3" stroke-linecap="round"/>
<path class="11" d="M231.272 128.07C232.209 128.07 232.791 128.332 233.671 128.668C235.659 129.428 237.597 130.24 239.537 131.125C241.248 131.906 242.816 132.852 244.688 132.852" stroke="black" stroke-width="3" stroke-linecap="round"/>
</g>
</g>
</svg>
