<svg width="244" height="207" viewBox="0 0 244 207" fill="none" xmlns="http://www.w3.org/2000/svg">
<rect width="244" height="207" fill="#F5F5F5"/>
<g class="Surface Pro 8 - 1">
<rect width="514" height="350" transform="translate(-119 -60)" fill="white"/>
<g class="mila hang">
<g class="1">
<path class="Vector 36" d="M2.19086 198.437C6.46469 198.437 12.1188 199.422 16.0522 197.924C21.0116 196.034 26.542 195.137 31.8937 195.137C39.3471 195.137 47.3503 193.923 54.6292 192.35C64.5095 190.213 74.715 189.614 84.8087 189.233C94.5274 188.866 104.352 189.196 114.071 189.196C123.02 189.196 131.585 191.439 140.474 191.873C147.877 192.234 155.757 193.176 163.136 194.147C172.746 195.411 182.242 197.762 191.922 199.097C195.622 199.607 198.92 201.193 202.593 201.737C204.781 202.061 214.812 205.616 216.051 204.377" stroke="black" stroke-width="3" stroke-linecap="round"/>
<path class="Vector 37" d="M24.633 195.137C24.633 192.188 26.7616 189.167 27.2732 186.226C27.9265 182.47 30.2631 178.285 32.9571 175.591C38.68 169.869 42.9865 164.291 50.3754 160.667C59.4784 156.201 68.1305 151.736 78.0247 149.262C86.0795 147.249 94.3646 146.35 102.484 144.678C109.277 143.28 116.718 141.011 123.642 141.011C127.38 141.011 129.053 143.838 132.517 144.972C138.967 147.083 145.878 147.554 151.732 151.279C156.898 154.567 163.578 155.177 168.82 158.173C173.135 160.639 177.813 163.825 181.728 166.901C185.248 169.667 190.182 171.938 192.436 175.995C197.254 184.667 208.79 192.86 208.79 203.717" stroke="black" stroke-width="3" stroke-linecap="round"/>
</g>
<g class="2">
<path class="Vector 38" d="M112.421 142.992C112.421 126.736 112.487 110.349 113.081 94.2937C113.209 90.8583 113.741 87.4469 113.741 83.9161C113.741 80.4174 113.181 77.9308 112.458 74.6752C111.128 68.6899 113.246 62.1333 110.441 56.5235" stroke="black" stroke-width="3" stroke-linecap="round"/>
<path class="Vector 39" d="M110.441 56.5235C110.441 38.9431 111.101 20.3717 111.101 2.39835" stroke="black" stroke-width="3" stroke-linecap="round"/>
</g>
<g class="3">
<path class="Vector 40" d="M109.781 2.39836C119.604 2.39836 129.301 2.02644 138.97 2.39836C145.157 2.63629 151.008 3.71849 157.269 3.71849C162.122 3.71849 166.974 3.71849 171.827 3.71849C180.337 3.71849 188.552 5.03861 196.909 5.03861C205.49 5.03861 214.071 5.03861 222.652 5.03861" stroke="black" stroke-width="3" stroke-linecap="round"/>
</g>
<path class="4" d="M110.441 28.8009C112.371 26.6568 113.315 23.8729 115.355 21.8335C117.309 19.8799 118.95 16.349 120.342 13.9128C122.093 10.8492 125.355 8.21428 126.943 5.0386" stroke="black" stroke-width="3" stroke-linecap="round"/>
<path class="5" d="M221.992 6.35873C221.992 12.0793 221.992 17.7998 221.992 23.5204C221.992 26.3792 222.642 30.1425 221.478 32.7612C220.494 34.9764 221.332 41.8254 221.332 34.7414" stroke="black" stroke-width="3" stroke-linecap="round"/>
<path class="6" d="M219.351 38.7018C217.329 38.7018 212.576 38.3848 211.431 40.3886C210.061 42.7848 209.451 45.7984 209.451 48.6027C209.451 50.9677 211.895 54.0582 213.081 56.1934C214.747 59.1922 216.35 61.1439 220.012 61.1439C225.015 61.1439 233.873 55.7213 233.873 49.9228C233.873 46.9489 231.729 44.6891 230.206 42.2955C228.139 39.0478 226.208 39.3618 222.652 39.3618" stroke="black" stroke-width="3" stroke-linecap="round"/>
<path class="7" d="M219.351 63.7842C219.351 66.3447 220.579 68.1268 220.672 70.5315C220.812 74.1762 221.332 77.8368 221.332 81.6059C221.332 88.6465 221.332 109.769 221.332 102.728" stroke="black" stroke-width="3" stroke-linecap="round"/>
<path class="8" d="M220.011 104.708C220.011 108.773 224.036 112.39 225.805 115.929C227.146 118.61 229.064 121.122 230.059 123.997C230.638 125.668 231.004 129.016 232.553 129.79" stroke="black" stroke-width="3" stroke-linecap="round"/>
<path class="9" d="M220.672 104.708C220.672 111.099 215.457 114.809 214.108 120.88C213.645 122.96 212.883 124.109 212.751 126.49C212.665 128.04 210.069 132.514 211.431 129.79" stroke="black" stroke-width="3" stroke-linecap="round"/>
<path class="10" d="M223.708 75.476C223.543 76.8018 220.841 75.2736 220.365 74.7973C218.946 73.3786 224.286 75.6954 226.172 76.381C231.705 78.3929 236.555 83.0767 242.261 84.9785" stroke="black" stroke-width="3" stroke-linecap="round"/>
<path class="11" d="M218.731 73.2135C214.1 77.3295 209.823 81.6618 205.835 86.5371C204.887 87.6958 204.253 88.5985 202.667 88.5985C201.874 88.5985 201.988 88.1276 201.988 87.4672C201.988 86.5321 203.123 86.7885 203.798 86.7885" stroke="black" stroke-width="3" stroke-linecap="round"/>
</g>
</g>
</svg>
